<?xml version="1.0" encoding="UTF-8"?>
<svg version="1.1" xmlns="http://www.w3.org/2000/svg" width="1024" height="1024">
<path d="M0 0 C1.98 0.33 3.96 0.66 6 1 C6.66 1.33 7.32 1.66 8 2 C7.67 3.32 7.34 4.64 7 6 C5.02 5.01 5.02 5.01 3 4 C1.35 4.33 -0.3 4.66 -2 5 C-9.92 8.63 -17.84 12.26 -26 16 C-27.98 16.66 -29.96 17.32 -32 18 C-44.375 22.455 -44.375 22.455 -57 27 C-74.325 31.95 -74.325 31.95 -92 37 C-111.305 41.455 -111.305 41.455 -131 46 C-145.52 48.64 -160.04 51.28 -175 54 C-207.175 58.95 -207.175 58.95 -240 64 C-258.315 67.465 -258.315 67.465 -277 71 C-285.58 73.31 -294.16 75.62 -303 78 C-307.95 79.65 -312.9 81.3 -318 83 C-319.98 84.98 -321.96 86.96 -324 89 C-324.33 115.73 -324.66 142.46 -325 170 C-329.62 170.99 -334.24 171.98 -339 173 C-342.96 174.98 -346.92 176.96 -351 179 C-354.3 181.97 -357.6 184.94 -361 188 C-364.96 192.455 -364.96 192.455 -369 197 C-371.64 201.95 -374.28 206.9 -377 212 C-378.32 216.29 -379.64 220.58 -381 225 C-381.66 229.62 -382.32 234.24 -383 239 C-383 242.63 -383 246.26 -383 250 C-382.01 256.27 -381.02 262.54 -380 269 C-378.02 274.94 -376.04 280.88 -374 287 C-369.545 295.415 -369.545 295.415 -365 304 C-362.03 307.96 -359.06 311.92 -356 316 C-352.37 319.96 -348.74 323.92 -345 328 C-339.06 332.95 -339.06 332.95 -333 338 C-330.03 339.98 -330.03 339.98 -327 342 C-326.01 356.52 -325.02 371.04 -324 386 C-322.68 397.22 -321.36 408.44 -320 420 C-317.69 433.2 -315.38 446.4 -313 460 C-310.69 469.24 -308.38 478.48 -306 488 C-302.7 497.9 -299.4 507.8 -296 518 C-292.04 527.57 -288.08 537.14 -284 547 C-280.04 555.25 -276.08 563.5 -272 572 C-267.71 579.59 -263.42 587.18 -259 595 C-255.37 600.28 -251.74 605.56 -248 611 C-244.7 615.62 -241.4 620.24 -238 625 C-231.565 632.92 -231.565 632.92 -225 641 C-221.7 644.63 -218.4 648.26 -215 652 C-212.69 654.64 -210.38 657.28 -208 660 C-191.665 676.335 -191.665 676.335 -175 693 C-169.555 697.455 -169.555 697.455 -164 702 C-159.05 706.455 -159.05 706.455 -154 711 C-148.39 715.29 -142.78 719.58 -137 724 C-130.73 728.62 -124.46 733.24 -118 738 C-110.08 743.28 -102.16 748.56 -94 754 C-81.33636417 761.88156356 -68.62411102 769.66369405 -55.82641602 777.32446289 C-53.21827083 778.88408476 -50.60954295 780.4427183 -48 782 C-32.3891807 790.44294578 -16.74530392 798.8097676 -1 807 C1.97 806.67 4.94 806.34 8 806 C7.67 807.32 7.34 808.64 7 810 C6.34 810.33 5.68 810.66 5 811 C2.69 811 0.38 811 -2 811 C-12.23 805.72 -22.46 800.44 -33 795 C-38.94 791.7 -44.88 788.4 -51 785 C-61.62847466 778.65350074 -72.23027508 772.27525202 -82.75 765.75 C-85.8025 763.8525 -88.855 761.955 -92 760 C-98.93 755.38 -105.86 750.76 -113 746 C-119.6 741.38 -126.2 736.76 -133 732 C-138.61 727.71 -144.22 723.42 -150 719 C-155.445 714.545 -155.445 714.545 -161 710 C-165.62 706.04 -170.24 702.08 -175 698 C-178.96 694.37 -182.92 690.74 -187 687 C-196.57 677.43 -206.14 667.86 -216 658 C-218.31 655.36 -220.62 652.72 -223 650 C-226.3 646.04 -229.6 642.08 -233 638 C-237.29 632.39 -241.58 626.78 -246 621 C-252.93 611.1 -252.93 611.1 -260 601 C-263.96 594.07 -267.92 587.14 -272 580 C-275.96 572.41 -279.92 564.82 -284 557 C-287.96 547.76 -291.92 538.52 -296 529 C-298.97 521.08 -301.94 513.16 -305 505 C-307.97 494.77 -310.94 484.54 -314 474 C-315.98 464.43 -317.96 454.86 -320 445 C-321.98 432.13 -323.96 419.26 -326 406 C-326.99 395.44 -327.98 384.88 -329 374 C-329.99 359.15 -329.99 359.15 -331 344 C-334.96 341.03 -338.92 338.06 -343 335 C-346.96 331.37 -350.92 327.74 -355 324 C-361.435 315.585 -361.435 315.585 -368 307 C-371.3 300.73 -374.6 294.46 -378 288 C-379.98 282.06 -381.96 276.12 -384 270 C-384.99 263.73 -385.98 257.46 -387 251 C-387 246.71 -387 242.42 -387 238 C-386.34 233.38 -385.68 228.76 -385 224 C-383.35 219.05 -381.7 214.1 -380 209 C-377.69 204.71 -375.38 200.42 -373 196 C-370.03 192.37 -367.06 188.74 -364 185 C-361.03 182.36 -358.06 179.72 -355 177 C-351.04 174.69 -347.08 172.38 -343 170 C-336.07 168.02 -336.07 168.02 -329 166 C-328.67 140.59 -328.34 115.18 -328 89 C-326.68 87.02 -325.36 85.04 -324 83 C-322.35 81.68 -320.7 80.36 -319 79 C-310.75 76.36 -302.5 73.72 -294 71 C-285.42 69.02 -276.84 67.04 -268 65 C-257.11 63.02 -246.22 61.04 -235 59 C-211.57 55.37 -188.14 51.74 -164 48 C-150.47 45.36 -136.94 42.72 -123 40 C-112.11 37.36 -101.22 34.72 -90 32 C-81.75 29.69 -73.5 27.38 -65 25 C-55.1 21.7 -45.2 18.4 -35 15 C-26.42 11.37 -17.84 7.74 -9 4 C-6.03 2.68 -3.06 1.36 0 0 Z M9 3 C11.97 3.99 14.94 4.98 18 6 C32.85 11.94 32.85 11.94 48 18 C61.86 22.455 61.86 22.455 76 27 C99.76 32.94 99.76 32.94 124 39 C143.8 42.96 143.8 42.96 164 47 C168.94742188 47.79664063 173.89484375 48.59328125 178.9921875 49.4140625 C182.2096802 49.93331955 185.42714708 50.45272822 188.64453125 50.97265625 C193.70240917 51.78999341 198.76035271 52.60689922 203.81884766 53.42041016 C226.58427975 57.08236286 249.30109154 60.94270718 272 65 C282.56 67.64 293.12 70.28 304 73 C309.94 74.98 315.88 76.96 322 79 C324.31 80.98 326.62 82.96 329 85 C329.66 86.32 330.32 87.64 331 89 C331.33 114.41 331.66 139.82 332 166 C335.96 166.99 339.92 167.98 344 169 C347.3 170.65 350.6 172.3 354 174 C357.3 176.64 360.6 179.28 364 182 C366.64 184.64 369.28 187.28 372 190 C374.31 193.3 376.62 196.6 379 200 C380.65 203.63 382.3 207.26 384 211 C385.98 217.435 385.98 217.435 388 224 C388.66 228.95 389.32 233.9 390 239 C390 242.96 390 246.92 390 251 C389.34 256.28 388.68 261.56 388 267 C386.35 272.61 384.7 278.22 383 284 C380.03 290.27 377.06 296.54 374 303 C369.05 309.93 369.05 309.93 364 317 C357.07 324.425 357.07 324.425 350 332 C343.07 337.445 343.07 337.445 336 343 C335.34 343 334.68 343 334 343 C333.34 355.87 332.68 368.74 332 382 C331.67 383.65 331.34 385.3 331 387 C330.67 392.28 330.34 397.56 330 403 C328.35 414.22 326.7 425.44 325 437 C323.35 445.25 321.7 453.5 320 462 C318.02 470.25 316.04 478.5 314 487 C310.04 498.88 306.08 510.76 302 523 C300.68 526.63 299.36 530.26 298 534 C297.01 533.67 296.02 533.34 295 533 C295.33 531.35 295.66 529.7 296 528 C300.29 515.46 304.58 502.92 309 490 C310.98 482.08 312.96 474.16 315 466 C317.31 454.12 319.62 442.24 322 430 C323.65 417.79 325.3 405.58 327 393 C327.66 384.42 328.32 375.84 329 367 C329.33 358.75 329.66 350.5 330 342 C335.445 338.04 335.445 338.04 341 334 C344.3 331.03 347.6 328.06 351 325 C354.96 320.71 358.92 316.42 363 312 C365.97 307.38 368.94 302.76 372 298 C375.465 290.575 375.465 290.575 379 283 C380.65 277.39 382.3 271.78 384 266 C384.66 260.72 385.32 255.44 386 250 C386 246.7 386 243.4 386 240 C385.01 233.4 384.02 226.8 383 220 C381.02 215.05 379.04 210.1 377 205 C374.69 201.37 372.38 197.74 370 194 C365.71 189.71 361.42 185.42 357 181 C354.03 179.02 351.06 177.04 348 175 C342.06 173.02 342.06 173.02 336 171 C333.69 170.67 331.38 170.34 329 170 C328.67 169.67 328.34 169.34 328 169 C327.67 142.6 327.34 116.2 327 89 C325.02 87.02 323.04 85.04 321 83 C312.75 80.36 304.5 77.72 296 75 C286.1 72.69 276.2 70.38 266 68 C238.20590187 63.21925074 210.39349763 58.56032634 182.5625 54 C181.8015591 53.87531216 181.04061821 53.75062431 180.2566185 53.62215805 C170.83813219 52.07906746 161.41912348 50.53920191 152 49 C138.14 46.03 124.28 43.06 110 40 C97.46 36.7 84.92 33.4 72 30 C62.1 26.7 52.2 23.4 42 20 C27.15 14.06 27.15 14.06 12 8 C11.01 7.34 10.02 6.68 9 6 C9 5.01 9 4.02 9 3 Z M-1 9 C1.31 9.33 3.62 9.66 6 10 C16.56 14.29 27.12 18.58 38 23 C48.89 26.96 48.89 26.96 60 31 C69.24 33.64 78.48 36.28 88 39 C100.21 41.97 112.42 44.94 125 48 C138.2 50.64 151.4 53.28 165 56 C193.71 60.62 222.42 65.24 252 70 C261.9 71.98 271.8 73.96 282 76 C290.58 78.31 299.16 80.62 308 83 C312.62 84.65 317.24 86.3 322 88 C322.33 88.33 322.66 88.66 323 89 C323.33 117.38 323.66 145.76 324 175 C328.62 175.33 333.24 175.66 338 176 C341.63 177.32 345.26 178.64 349 180 C352.63 182.64 356.26 185.28 360 188 C363.96 192.455 363.96 192.455 368 197 C371.96 204.92 371.96 204.92 376 213 C376.99 215.97 377.98 218.94 379 222 C379.66 226.29 380.32 230.58 381 235 C381 241.6 381 248.2 381 255 C379.515 263.415 379.515 263.415 378 272 C375.03 280.415 375.03 280.415 372 289 C369.36 293.95 366.72 298.9 364 304 C361.03 307.96 358.06 311.92 355 316 C350.05 320.95 345.1 325.9 340 331 C335.38 333.97 330.76 336.94 326 340 C324.515 364.255 324.515 364.255 323 389 C321.02 403.52 319.04 418.04 317 433 C314.03 448.345 314.03 448.345 311 464 C308.69 473.24 306.38 482.48 304 492 C300.04 503.55 296.08 515.1 292 527 C288.7 534.59 285.4 542.18 282 550 C279.36 555.61 276.72 561.22 274 567 C270.37 573.6 266.74 580.2 263 587 C259.04 593.27 255.08 599.54 251 606 C247.7 610.62 244.4 615.24 241 620 C237.7 624.29 234.4 628.58 231 633 C227.04 637.62 223.08 642.24 219 647 C216.03 650.3 213.06 653.6 210 657 C200.66666667 666.33333333 191.33333333 675.66666667 182 685 C178.7 687.97 175.4 690.94 172 694 C170.453125 695.258125 168.90625 696.51625 167.3125 697.8125 C163.42583877 700.99065528 159.56530015 704.19604536 155.73046875 707.43652344 C153.15201788 709.62243011 150.57628587 711.81154211 148 714 C142.72 717.96 137.44 721.92 132 726 C126.06 730.29 120.12 734.58 114 739 C101.625 746.92 101.625 746.92 89 755 C80.09 760.445 80.09 760.445 71 766 C64.07 769.96 57.14 773.92 50 778 C46.7 779.98 43.4 781.96 40 784 C35.38 786.31 30.76 788.62 26 791 C20.72 793.97 15.44 796.94 10 800 C7.69 800.99 5.38 801.98 3 803 C1.02 802.67 -0.96 802.34 -3 802 C-10.59 798.04 -18.18 794.08 -26 790 C-49 777 -49 777 -58.5625 771.375 C-70.4469597 764.36756372 -82.23214548 757.20106327 -94 750 C-97.3 747.69 -100.6 745.38 -104 743 C-109.94 739.04 -109.94 739.04 -116 735 C-121.94 730.71 -127.88 726.42 -134 722 C-138.29 718.7 -142.58 715.4 -147 712 C-148.918125 710.370625 -150.83625 708.74125 -152.8125 707.0625 C-156.29563323 704.10964011 -159.78570324 701.16628755 -163.3125 698.265625 C-165.87165338 696.17298396 -168.43535702 694.08590962 -171 692 C-175.95 687.38 -180.9 682.76 -186 678 C-196.89 667.11 -196.89 667.11 -208 656 C-215.77777778 647.11111111 -215.77777778 647.11111111 -219.39038086 642.8359375 C-219.90093018 642.23007812 -220.41147949 641.62421875 -220.9375 641 C-223.4434375 638.03 -223.4434375 638.03 -226 635 C-229.3 630.71 -232.6 626.42 -236 622 C-241.94 613.585 -241.94 613.585 -248 605 C-252.29 598.07 -256.58 591.14 -261 584 C-265.95 574.43 -270.9 564.86 -276 555 C-279.96 545.76 -283.92 536.52 -288 527 C-292.95 513.14 -292.95 513.14 -298 499 C-301.465 487.12 -301.465 487.12 -305 475 C-307.31 463.78 -309.62 452.56 -312 441 C-313.98 427.47 -315.96 413.94 -318 400 C-318.99 388.12 -319.98 376.24 -321 364 C-321.33 356.41 -321.66 348.82 -322 341 C-328.93 336.05 -328.93 336.05 -336 331 C-339.96 327.37 -343.92 323.74 -348 320 C-350.64 317.03 -353.28 314.06 -356 311 C-360.455 303.575 -360.455 303.575 -365 296 C-367.31 291.05 -369.62 286.1 -372 281 C-373.65 274.4 -375.3 267.8 -377 261 C-377.33 258.69 -377.66 256.38 -378 254 C-378 247.07 -378 240.14 -378 233 C-376.68 227.39 -375.36 221.78 -374 216 C-371.36 210.72 -368.72 205.44 -366 200 C-364.02 197.36 -362.04 194.72 -360 192 C-357.36 189.36 -354.72 186.72 -352 184 C-347.38 181.69 -342.76 179.38 -338 177 C-336.68 176.67 -335.36 176.34 -334 176 C-329.38 176 -324.76 176 -320 176 C-320 147.29 -320 118.58 -320 89 C-317.03 87.68 -314.06 86.36 -311 85 C-295.16 80.545 -295.16 80.545 -279 76 C-260.685 72.535 -260.685 72.535 -242 69 C-216.59 65.04 -191.18 61.08 -165 57 C-149.82 54.03 -134.64 51.06 -119 48 C-104.48 44.37 -89.96 40.74 -75 37 C-61.8 32.71 -48.6 28.42 -35 24 C-30.71 22.35 -26.42 20.7 -22 19 C-17.05 16.69 -12.1 14.38 -7 12 C-5.02 11.01 -3.04 10.02 -1 9 Z M294 533 C294.99 533.99 295.98 534.98 297 536 C294.03 542.6 291.06 549.2 288 556 C283.71 564.58 279.42 573.16 275 582 C271.04 588.6 267.08 595.2 263 602 C259.04 607.61 255.08 613.22 251 619 C246.71 624.61 242.42 630.22 238 636 C234.04 640.62 230.08 645.24 226 650 C223.03 653.3 220.06 656.6 217 660 C213.04 663.96 209.08 667.92 205 672 C203.35 673.98 201.7 675.96 200 678 C197.36 680.31 194.72 682.62 192 685 C188.7 688.3 185.4 691.6 182 695 C178.37 697.97 174.74 700.94 171 704 C167.7 706.97 164.4 709.94 161 713 C157.04 715.97 157.04 715.97 153 719 C151.68 720.65 150.36 722.3 149 724 C145.7 725.98 142.4 727.96 139 730 C133.06 734.29 127.12 738.58 121 743 C110.605 749.93 110.605 749.93 100 757 C92.08 761.95 84.16 766.9 76 772 C67.42 776.95 58.84 781.9 50 787 C37 794 24 801 11 808 C10.34 808 9.68 808 9 808 C9.495 806.02 9.495 806.02 10 804 C17.59 800.04 25.18 796.08 33 792 C47.25502612 783.98154781 61.4448499 775.8698708 75.55859375 767.60546875 C77.02425781 766.74566406 78.48992187 765.88585937 80 765 C86.27 761.04 92.54 757.08 99 753 C103.95 749.7 108.9 746.4 114 743 C119.61 739.04 125.22 735.08 131 731 C134.96 728.03 138.92 725.06 143 722 C144.32 721.34 145.64 720.68 147 720 C149.64 717.36 152.28 714.72 155 712 C158.63 709.03 162.26 706.06 166 703 C169.3 700.03 172.6 697.06 176 694 C177.98 693.01 179.96 692.02 182 691 C183.32 689.35 184.64 687.7 186 686 C187.98 683.69 189.96 681.38 192 679 C195.3 676.03 198.6 673.06 202 670 C203.98 667.69 205.96 665.38 208 663 C209.32 662.34 210.64 661.68 212 661 C214.64 658.36 217.28 655.72 220 653 C220.99 651.02 220.99 651.02 222 649 C223.65 647.35 225.3 645.7 227 644 C227.36351562 643.57589844 227.72703125 643.15179687 228.1015625 642.71484375 C231.734375 638.4765625 235.3671875 634.23828125 239 630 C239.99 628.02 239.99 628.02 241 626 C245.29 620.06 249.58 614.12 254 608 C257.96 601.73 261.92 595.46 266 589 C269.3 583.06 272.6 577.12 276 571 C279.96 563.08 283.92 555.16 288 547 C289.98 542.38 291.96 537.76 294 533 Z " fill="#7C5139" transform="translate(513,120)"/>
</svg>
