<?xml version="1.0" standalone="no"?>
<!DOCTYPE svg PUBLIC "-//W3C//DTD SVG 20010904//EN"
 "http://www.w3.org/TR/2001/REC-SVG-20010904/DTD/svg10.dtd">
<svg version="1.0" xmlns="http://www.w3.org/2000/svg"
 width="1024.000000pt" height="1024.000000pt" viewBox="0 0 1024.000000 1024.000000"
 preserveAspectRatio="xMidYMid meet">
<metadata>
Created by potrace 1.16, written by Peter Selinger 2001-2019
</metadata>
<style type="text/css"> .st0{fill:#ED323B;} </style>
<g transform="translate(0.000000,1024.000000) scale(0.100000,-0.100000)"
fill="#000000" stroke="none">
<path d="M5000 8979 c-437 -196 -1061 -362 -1725 -458 -649 -94 -963 -155
-1220 -238 -111 -36 -164 -66 -187 -106 -10 -16 -14 -124 -18 -411 l-5 -388
-77 -22 c-264 -77 -461 -337 -499 -663 -43 -366 168 -814 492 -1045 l65 -47
13 -201 c34 -540 118 -1019 244 -1395 202 -598 457 -1047 848 -1490 133 -151
419 -429 569 -555 337 -281 823 -603 1300 -863 317 -172 343 -182 391 -157 25
14 26 45 2 35 -57 -24 -64 -21 -383 152 -473 257 -935 564 -1270 843 -150 125
-464 432 -599 585 -380 431 -629 871 -828 1460 -119 355 -197 778 -238 1300
-8 99 -15 207 -15 241 l0 61 -57 39 c-82 55 -238 215 -301 307 -151 220 -230
502 -203 725 23 185 88 332 204 457 40 43 99 96 131 117 62 40 168 78 217 78
l29 0 0 403 0 403 38 36 c92 89 529 187 1367 309 331 48 718 128 1035 215 192
53 455 139 487 160 12 8 28 14 36 14 11 0 170 68 278 120 22 10 32 9 58 -4 30
-16 31 -16 31 3 0 16 -44 42 -69 41 -3 -1 -67 -28 -141 -61z"/>
<path d="M5222 8994 c2 -14 46 -37 168 -86 430 -175 940 -305 1615 -413 775
-123 968 -161 1205 -237 100 -32 132 -47 163 -76 l37 -36 0 -398 c0 -310 3
-399 13 -402 6 -2 38 -8 69 -14 100 -19 164 -58 274 -167 85 -85 107 -113 142
-185 49 -100 66 -165 82 -293 27 -226 -44 -495 -185 -706 -63 -93 -218 -255
-304 -316 l-70 -50 0 -97 c-2 -332 -78 -871 -176 -1258 -125 -494 -387 -1052
-663 -1413 -24 -32 -45 -65 -46 -73 -1 -8 -22 -35 -46 -59 -24 -25 -40 -45
-35 -45 6 0 -23 -32 -63 -71 -40 -38 -70 -74 -68 -78 3 -4 -22 -34 -54 -66
-33 -33 -60 -56 -60 -52 0 4 -49 -41 -109 -100 -59 -60 -108 -111 -107 -115 2
-11 -66 -78 -74 -73 -7 4 -221 -175 -302 -253 -26 -25 -54 -47 -62 -48 -7 -1
-42 -24 -77 -51 -239 -186 -620 -424 -1053 -658 -122 -66 -216 -123 -216 -131
0 -8 3 -14 8 -14 12 0 470 252 617 340 218 130 404 251 569 369 83 59 162 114
176 121 14 7 48 34 75 61 28 26 113 101 190 167 146 125 454 430 571 566 100
116 279 358 354 478 71 114 229 418 283 544 27 62 32 85 24 93 -9 9 -8 11 3 6
18 -6 18 -7 101 234 89 260 190 678 167 692 -7 4 -6 8 1 10 13 5 41 162 67
378 13 113 14 145 4 151 -9 6 -9 9 0 12 14 4 29 162 30 311 0 80 3 100 18 111
9 8 51 41 93 74 247 194 418 502 450 807 17 165 -19 425 -60 425 -12 0 -13 2
-4 8 17 11 -33 115 -91 190 -108 140 -243 233 -381 260 l-40 8 -5 389 c-4 288
-8 396 -18 412 -23 41 -77 71 -202 111 -236 76 -429 114 -1205 237 -468 75
-889 168 -1225 272 -109 34 -425 152 -563 212 -5 2 -7 -5 -5 -15z"/>
<path d="M5025 8561 c-219 -96 -531 -194 -865 -270 -251 -58 -501 -102 -940
-166 -330 -48 -593 -91 -894 -148 l-70 -13 -2 -54 c-2 -30 -5 -161 -8 -290 -3
-129 -14 -343 -25 -475 -11 -132 -23 -297 -26 -367 l-7 -128 -94 0 c-126 0
-161 17 -200 97 -49 100 -35 249 32 349 l25 37 -52 -6 c-152 -18 -273 -128
-342 -310 -29 -77 -31 -90 -31 -222 0 -126 2 -148 27 -220 36 -109 89 -195
170 -279 38 -39 77 -91 88 -116 72 -168 202 -315 339 -382 l67 -33 6 -230 c17
-677 193 -1391 487 -1969 376 -743 919 -1281 1882 -1864 149 -90 431 -246 519
-288 l37 -17 148 78 c783 410 1334 823 1803 1350 268 302 524 754 694 1228
171 475 287 1131 287 1624 l0 92 68 36 c138 72 252 193 324 343 27 57 55 99
80 121 96 83 182 246 214 401 62 307 -116 627 -364 657 l-50 5 37 -73 c33 -66
36 -82 39 -168 3 -89 2 -100 -25 -150 -41 -78 -72 -92 -198 -89 l-100 3 -7
120 c-5 66 -17 230 -29 365 -11 135 -23 374 -26 532 l-6 287 -91 20 c-153 34
-350 68 -825 142 -776 120 -1091 185 -1506 314 -141 44 -359 126 -425 160 -16
8 -35 15 -42 15 -7 -1 -63 -23 -123 -49z m168 -181 c29 -64 28 -168 -3 -235
-12 -27 -28 -65 -35 -82 l-11 -33 -34 82 c-54 131 -52 220 7 312 25 38 26 39
40 20 9 -10 25 -39 36 -64z m-297 -155 c107 -30 186 -126 218 -265 l15 -63
-47 45 c-26 24 -76 68 -112 96 -36 28 -101 87 -145 132 l-80 82 50 -6 c28 -4
73 -13 101 -21z m569 -56 c-44 -45 -107 -104 -140 -131 -33 -28 -84 -72 -113
-99 -58 -54 -59 -54 -25 56 22 69 38 100 80 146 44 49 96 77 177 94 107 23
107 22 21 -66z m-976 -99 c272 -28 463 -150 564 -361 45 -92 82 -220 76 -253
-3 -11 -24 11 -63 66 -83 116 -144 183 -225 252 -145 123 -292 196 -473 236
-51 11 -118 28 -148 38 l-55 17 70 6 c118 10 149 9 254 -1z m1588 0 c23 0 43
-4 43 -8 0 -8 -106 -38 -255 -71 -112 -26 -290 -112 -377 -183 -90 -73 -170
-157 -162 -170 4 -7 3 -8 -4 -4 -6 4 -19 -6 -29 -21 -10 -15 -20 -30 -23 -33
-4 -3 -23 -30 -44 -62 -20 -31 -43 -62 -51 -68 -13 -11 -15 -8 -15 17 0 45 35
173 63 231 44 91 116 181 186 233 134 99 347 155 550 143 41 -2 94 -4 118 -4z
m-2184 -155 c400 -70 748 -310 942 -650 25 -44 45 -87 45 -96 0 -13 -15 -18
-77 -23 -43 -4 -144 -18 -226 -32 -81 -14 -155 -24 -165 -22 -12 3 4 18 52 53
86 62 226 183 226 196 0 5 -10 7 -22 4 -51 -12 -366 -55 -403 -55 -22 0 -54 4
-72 9 -21 6 -35 5 -43 -2 -7 -7 -2 8 11 32 31 57 122 151 174 180 l40 22 -39
-6 c-93 -15 -148 -46 -228 -126 l-76 -78 -26 24 c-13 12 -26 21 -28 19 -5 -5
-11 35 -12 81 -1 52 36 127 92 187 l44 47 -39 -15 c-85 -34 -128 -76 -218
-217 -9 -14 -15 -14 -60 1 -27 8 -52 17 -54 18 -2 2 7 36 19 76 27 90 75 183
108 209 36 28 14 23 -44 -11 -77 -44 -145 -139 -180 -252 -10 -32 -21 -58 -24
-58 -15 0 -52 96 -61 157 -10 69 -5 114 18 173 l13 35 -35 -39 c-19 -21 -43
-57 -54 -80 -26 -54 -43 -161 -34 -222 l6 -48 -41 33 c-23 18 -54 52 -67 76
-30 51 -59 176 -49 218 10 48 -12 23 -35 -39 -25 -65 -28 -188 -7 -275 l13
-56 -26 13 c-14 8 -34 14 -43 14 -30 0 -85 67 -132 160 -53 105 -62 102 -53
-20 3 -56 14 -101 39 -163 l34 -85 -25 8 c-14 5 -50 16 -78 24 -57 18 -81 45
-139 156 l-29 55 -3 -34 c-8 -79 23 -186 78 -275 l22 -36 -55 0 c-45 0 -72 9
-166 55 -62 30 -115 55 -118 55 -4 0 5 -12 19 -27 14 -16 40 -50 59 -78 34
-51 96 -115 137 -142 43 -29 26 -36 -75 -30 -56 3 -126 14 -162 26 -36 11 -67
18 -69 16 -8 -8 123 -132 181 -170 55 -36 71 -60 45 -63 -7 -1 -45 -7 -83 -14
-58 -9 -83 -8 -138 4 -37 8 -67 12 -67 8 0 -4 30 -35 66 -69 62 -58 114 -89
209 -124 l40 -15 -48 -13 c-37 -10 -44 -15 -30 -21 20 -8 -44 -3 -184 14 -51
6 -98 15 -105 19 -10 6 -13 49 -11 171 1 139 5 178 27 263 80 309 301 587 590
741 246 131 607 182 909 129z m2898 15 c199 -20 334 -57 492 -135 320 -159
546 -449 622 -795 19 -90 33 -374 18 -383 -6 -4 -48 -14 -94 -23 -46 -9 -91
-22 -99 -29 -20 -16 -78 -35 -104 -34 -20 1 -20 2 -1 6 11 3 34 11 50 18 17 7
37 16 45 19 8 3 1 4 -17 1 -18 -2 -35 0 -38 5 -3 6 -26 15 -51 21 -41 11 -61
29 -30 29 31 0 156 73 214 126 35 31 61 58 58 61 -2 2 -64 -7 -136 -21 -140
-27 -207 -33 -180 -16 8 5 10 10 4 10 -6 0 -11 7 -11 15 0 14 13 19 47 16 8 0
3 5 -12 12 l-27 13 47 26 c55 31 212 164 212 180 0 5 -7 7 -16 4 -53 -20 -180
-46 -226 -45 -95 1 -97 8 -28 68 52 45 189 211 175 211 -3 0 -51 -23 -108 -52
-79 -40 -116 -53 -164 -58 -35 -3 -63 -4 -63 -1 0 2 13 25 29 51 16 26 37 70
46 96 21 63 32 184 16 184 -6 0 -11 -5 -11 -11 0 -18 -67 -124 -102 -160 -28
-29 -41 -35 -83 -38 -27 -1 -56 -8 -64 -14 -11 -10 -11 -6 1 18 34 66 59 163
64 250 5 83 4 88 -10 71 -9 -11 -16 -24 -16 -29 0 -13 -76 -139 -99 -163 -19
-21 -107 -61 -115 -53 -3 2 2 31 10 64 19 84 17 162 -6 239 -27 86 -40 92 -40
19 0 -91 -54 -237 -92 -249 -10 -3 -18 -10 -18 -15 0 -6 -5 -7 -10 -4 -6 4
-17 1 -25 -5 -13 -11 -15 0 -15 76 -1 101 -18 159 -67 229 -40 55 -55 58 -37
8 30 -84 12 -220 -37 -293 -16 -24 -16 -23 -37 46 -30 97 -87 182 -158 233
-66 47 -90 54 -51 13 32 -33 80 -136 101 -217 8 -33 14 -60 13 -61 -1 -1 -25
-9 -54 -17 l-52 -16 -29 52 c-35 61 -122 146 -180 176 -23 12 -42 20 -42 17 0
-2 16 -21 36 -42 45 -49 93 -148 94 -194 0 -51 -5 -89 -14 -97 -4 -5 -7 -3 -6
2 5 22 -1 27 -15 15 -18 -15 -20 -34 -2 -24 6 4 9 3 5 -1 -22 -24 -54 -12 -87
32 -64 84 -150 139 -249 161 -47 11 -56 2 -16 -17 48 -22 111 -81 154 -144
l41 -62 -28 -6 c-15 -4 -50 -7 -76 -8 -57 -1 -383 44 -421 59 l-26 10 22 -30
c27 -37 160 -151 230 -198 92 -61 98 -59 -99 -22 -56 11 -152 26 -213 34 -62
8 -114 17 -116 19 -8 8 81 176 126 237 103 139 297 303 449 380 135 68 357
133 508 149 114 12 178 12 294 1z m-3110 -964 c37 -8 91 -27 120 -42 60 -30
189 -148 189 -173 0 -10 -10 -4 -30 17 -16 18 -51 42 -76 53 -62 28 -177 59
-211 58 l-28 -1 25 -8 25 -7 -30 -8 c-26 -7 -27 -9 -10 -16 28 -11 37 -11 30
1 -10 16 1 12 16 -6 11 -14 4 -15 -72 -8 -71 5 -91 4 -120 -11 -30 -16 -32
-19 -14 -25 19 -7 19 -7 -1 -18 -12 -6 -31 -35 -44 -64 -33 -76 -26 -188 17
-278 18 -35 30 -66 28 -68 -10 -11 -97 64 -125 108 -67 105 -89 240 -62 388
12 63 17 72 35 72 12 0 45 7 72 16 111 35 174 39 266 20z m3200 -22 l87 -27
13 -66 c38 -186 -18 -375 -134 -461 -59 -44 -71 -38 -37 18 15 26 31 58 35 72
6 24 5 24 -10 -2 -18 -32 -31 -39 -15 -8 6 11 8 37 5 58 -4 27 -3 32 4 17 7
-14 10 -16 11 -5 1 10 4 9 10 -5 6 -14 9 0 9 46 1 79 -22 152 -55 174 -28 18
-32 37 -6 28 14 -5 14 -2 -4 16 -13 14 -38 24 -72 28 -57 6 -198 -13 -221 -31
-11 -9 -13 -8 -9 4 2 8 13 17 23 19 10 2 25 9 33 17 7 8 21 14 30 13 12 0 9
-3 -7 -10 -13 -5 -21 -12 -18 -15 3 -3 14 -1 25 5 12 6 33 11 49 12 18 1 6 6
-32 15 -33 7 -69 10 -80 6 -26 -8 -32 -9 -51 -11 -13 -1 -14 -4 -4 -16 10 -12
10 -15 -3 -15 -8 0 -17 4 -19 10 -2 6 -15 4 -32 -5 -15 -8 -33 -15 -39 -15 -6
0 -19 -8 -30 -17 -19 -17 -20 -17 -9 4 7 12 33 39 59 62 140 119 295 146 494
85z m-5122 -298 c26 -60 67 -104 125 -133 47 -25 64 -27 221 -34 185 -7 246
-19 373 -73 101 -42 180 -95 237 -158 54 -60 65 -94 72 -219 6 -106 -11 -211
-49 -296 -15 -33 -18 -51 -11 -62 7 -12 6 -20 -5 -30 -12 -12 -13 -11 -7 9 5
15 4 20 -4 16 -6 -4 -11 -13 -11 -21 0 -7 -6 -15 -12 -18 -7 -3 6 -8 29 -12
38 -7 41 -10 32 -27 -24 -44 -123 -130 -182 -157 -111 -52 -107 -53 -107 27
l0 70 50 7 c72 10 93 31 121 122 19 60 24 100 24 178 0 91 -3 106 -32 167 -80
170 -205 295 -333 333 -25 8 -24 7 5 -22 17 -16 33 -28 36 -26 3 1 6 -3 7 -10
0 -7 4 -27 7 -46 l7 -35 -36 32 c-50 44 -115 80 -176 98 -70 21 -211 16 -259
-9 -19 -9 -36 -17 -38 -17 -2 0 6 18 17 40 11 22 34 47 52 56 l33 17 -46 11
c-52 14 -95 42 -135 89 -19 21 -25 26 -21 12 6 -17 5 -17 -9 3 -18 24 -39 30
-31 9 3 -8 1 -20 -5 -28 -7 -10 -8 -5 -5 19 2 17 -1 32 -6 32 -15 0 1 145 21
194 l16 41 8 -54 c5 -29 16 -72 27 -95z m6836 82 c14 -50 21 -158 9 -145 -3 3
-19 -8 -36 -25 -20 -21 -28 -38 -26 -53 4 -17 0 -22 -16 -20 -25 1 -48 -13
-40 -26 3 -5 -3 -6 -12 -2 -13 5 -15 3 -9 -7 5 -8 4 -11 -3 -6 -6 3 -25 -2
-42 -13 -17 -10 -40 -16 -51 -14 -12 3 -2 -11 26 -40 55 -55 58 -69 8 -51
-121 43 -341 -10 -428 -103 -13 -15 -27 -24 -31 -20 -14 14 10 64 49 100 36
34 38 38 17 32 -121 -36 -236 -134 -299 -254 -22 -43 -38 -81 -34 -85 3 -3 2
-6 -4 -6 -16 0 -33 -81 -33 -157 0 -67 27 -204 51 -256 12 -26 19 -29 102 -43
l37 -6 0 -69 c0 -38 -2 -69 -4 -69 -3 0 -40 17 -83 37 -58 28 -96 55 -148 107
-66 67 -68 71 -45 76 18 4 21 8 12 14 -7 4 -20 5 -28 2 -8 -3 -13 -2 -9 3 3 5
-1 12 -7 15 -7 3 -4 4 7 3 12 -1 20 5 23 18 2 16 1 17 -7 5 -13 -18 -13 -3 -1
25 6 13 9 15 9 5 1 -12 3 -12 10 -2 5 9 -1 40 -16 83 -63 181 -42 381 50 478
40 43 144 109 224 144 111 49 206 68 378 76 145 7 165 10 210 33 89 46 145
129 153 224 2 30 8 51 13 48 5 -2 15 -28 24 -56z m-4233 -133 c69 -14 259 -99
203 -90 -95 15 -259 26 -315 21 -36 -3 -90 -15 -120 -26 -52 -18 -53 -20 -20
-19 19 1 40 0 45 -1 6 -1 27 -1 48 0 20 1 37 -2 37 -7 0 -5 23 -10 50 -10 100
-4 76 -18 -33 -20 -179 -4 -338 -39 -429 -94 -27 -16 -48 -25 -48 -21 0 4 13
30 29 58 58 100 184 192 293 213 68 14 187 12 260 -4z m1839 -1 c119 -36 201
-95 268 -195 23 -34 41 -65 41 -69 0 -4 -30 8 -66 27 -72 39 -142 61 -219 70
-27 3 -51 8 -52 12 -2 3 -29 5 -60 5 l-58 -2 55 7 c30 3 76 3 103 0 27 -3 47
-1 47 4 0 5 7 4 15 -3 9 -7 18 -10 21 -7 20 19 -171 74 -286 82 -83 6 -231 -5
-287 -20 -10 -3 18 13 62 34 44 22 107 47 140 55 82 20 209 20 276 0z m-1487
-254 c116 -29 190 -73 281 -165 57 -57 90 -100 116 -151 l35 -72 43 83 c70
138 185 236 343 293 66 24 87 26 213 26 122 1 147 -2 195 -22 30 -12 65 -30
77 -40 22 -16 20 -17 -60 -14 -45 2 -98 -1 -117 -6 l-35 -10 32 -1 c48 -1 133
-36 176 -72 40 -33 97 -122 97 -151 0 -12 -11 -19 -37 -23 -167 -25 -284 -70
-350 -132 -36 -34 -43 -37 -43 -20 0 20 0 20 -22 1 -15 -13 -13 -7 7 18 17 21
41 51 53 68 l24 30 -54 -23 c-40 -18 -53 -29 -54 -46 -1 -22 -14 -43 -14 -23
0 7 -7 12 -16 12 -8 0 -12 -4 -9 -10 3 -5 0 -7 -8 -4 -18 6 -106 -89 -137
-148 -46 -88 -60 -146 -60 -252 0 -118 23 -220 93 -421 56 -158 72 -244 48
-253 -9 -3 -19 -10 -23 -16 -5 -7 -8 -5 -8 5 0 10 -11 19 -27 22 -16 3 -48 10
-73 16 -83 19 -248 12 -234 -10 8 -14 -10 -11 -25 4 -8 8 -50 12 -139 11 -103
-1 -138 -5 -186 -22 -60 -22 -96 -18 -96 13 0 7 -4 17 -10 20 -6 4 -10 -8 -10
-30 0 -21 4 -34 10 -30 5 3 7 0 4 -9 -3 -8 -1 -31 6 -51 12 -37 45 -60 125
-85 107 -34 178 -91 210 -167 22 -52 20 -109 -5 -126 -11 -8 -17 -17 -12 -22
4 -5 2 -5 -4 -2 -6 3 -34 -3 -63 -13 -86 -33 -230 -45 -332 -27 -83 14 -206
60 -221 82 -5 6 -8 1 -9 -10 0 -12 -4 -7 -10 14 -6 18 -9 35 -7 37 2 2 24 -4
48 -12 74 -26 150 -28 257 -8 54 10 87 19 73 21 -184 21 -273 43 -333 84 -65
44 -79 84 -24 68 74 -22 136 -29 197 -23 l65 7 -64 16 c-48 12 -69 23 -85 44
-28 38 -26 109 7 180 16 35 22 59 16 68 -7 12 -9 12 -9 0 0 -8 -3 -12 -6 -8
-3 3 -3 11 1 17 5 8 11 7 23 -2 10 -7 14 -8 10 -4 -4 5 2 17 13 27 11 9 20 20
20 23 -1 15 12 35 20 30 5 -3 9 1 9 9 0 8 11 22 25 31 14 9 25 21 25 27 0 5
16 25 35 45 38 38 43 30 21 -34 -26 -73 -30 -129 -12 -157 9 -14 14 -30 11
-35 -3 -6 -1 -10 4 -10 15 0 14 40 -1 40 -8 1 -5 6 5 15 14 10 17 21 12 43 -4
21 -2 33 7 39 19 11 82 199 72 214 -4 7 -3 9 4 5 14 -9 47 103 61 208 11 79 0
237 -18 261 -4 5 -15 31 -25 57 -22 60 -73 131 -88 122 -6 -4 -8 -3 -4 4 8 13
-91 95 -156 128 -26 13 -48 22 -48 19 0 -4 11 -21 25 -39 14 -18 25 -38 25
-44 0 -6 4 -12 10 -14 5 -2 6 -9 1 -17 -7 -11 -14 -9 -37 12 -64 59 -200 117
-329 138 -57 10 -74 16 -70 27 15 41 18 65 5 57 -9 -5 -11 -4 -6 4 4 6 11 9
16 6 5 -3 14 4 20 15 6 11 8 20 5 20 -3 0 12 16 34 35 46 42 113 73 175 81 26
4 44 9 41 13 -14 14 -152 18 -192 6 -24 -7 -43 -11 -43 -9 0 10 91 60 140 75
78 25 234 25 334 -1z m-879 -190 c33 -4 53 -8 45 -9 -119 -14 -305 -65 -295
-81 3 -4 -5 -6 -17 -2 -16 4 -19 2 -13 -8 5 -8 4 -11 -3 -6 -13 8 -84 -33 -76
-45 3 -5 -1 -6 -8 -4 -8 3 -32 -10 -53 -29 -22 -19 -35 -35 -28 -36 6 0 19 -3
29 -7 11 -4 15 -3 11 4 -4 6 -1 14 5 17 7 3 2 3 -12 0 -24 -5 -24 -4 -6 10 15
12 22 13 27 4 15 -24 -11 -45 -78 -63 -76 -20 -132 -46 -180 -82 -19 -14 -33
-19 -33 -12 0 20 66 131 104 176 118 137 340 203 581 173z m2924 -15 c158 -38
281 -133 354 -272 21 -40 36 -73 32 -73 -3 0 -24 13 -46 30 -54 38 -126 65
-222 81 -42 7 -77 17 -77 22 0 5 13 6 30 2 35 -8 73 2 64 16 -3 6 -13 8 -21 5
-8 -3 -11 -2 -8 4 6 9 -34 36 -48 32 -5 -1 -6 2 -3 7 8 12 -42 44 -56 35 -7
-4 -8 -3 -4 4 14 23 -127 75 -279 104 l-70 13 40 7 c61 10 242 0 314 -17z
m-4569 -115 c68 -35 127 -135 137 -236 7 -66 4 -67 -96 -19 -87 42 -177 129
-215 208 l-25 52 22 7 c48 14 138 8 177 -12z m6109 5 c10 -11 -49 -105 -102
-161 -57 -62 -141 -114 -209 -130 -33 -7 -34 -2 -17 78 23 105 87 198 152 218
28 8 166 4 176 -5z m-4524 -215 c-3 -5 -25 -15 -48 -21 -86 -24 -194 -63 -252
-92 -74 -36 -146 -87 -140 -98 3 -4 0 -11 -6 -15 -8 -4 -9 -3 -5 4 4 7 3 12
-2 12 -12 0 -34 -25 -27 -31 2 -3 -14 -25 -37 -49 -23 -25 -42 -52 -42 -60 -1
-8 -12 -20 -26 -27 -14 -7 -21 -13 -16 -13 5 0 -1 -9 -14 -20 -29 -25 -20 -25
28 -1 20 10 48 22 62 25 14 4 -15 -13 -64 -38 -49 -26 -104 -58 -123 -72 -40
-31 -42 -21 -12 69 93 280 277 392 717 436 7 0 10 -3 7 -9z m2945 -17 c286
-53 442 -179 526 -427 13 -38 23 -70 21 -71 -1 -1 -24 14 -51 32 -42 29 -46
40 -11 33 6 -1 4 5 -3 12 -7 7 -16 13 -20 13 -4 1 -23 11 -42 24 -23 15 -28
21 -15 19 11 -2 28 -12 37 -23 10 -11 17 -15 18 -9 0 14 -35 46 -42 39 -3 -3
-11 2 -19 12 -12 15 -12 16 1 8 8 -4 2 6 -14 23 -16 17 -34 28 -40 25 -6 -3
-8 -3 -4 2 11 11 -12 36 -25 28 -6 -3 -7 -1 -3 5 18 29 -238 177 -409 237 -44
16 -84 32 -89 36 -12 11 75 2 184 -18z m-480 -116 c0 -103 -45 -235 -113 -331
-13 -19 -16 -27 -6 -22 7 4 6 1 -3 -7 -10 -8 -40 -45 -68 -82 -55 -74 -57 -72
-36 45 8 41 12 77 10 79 -10 11 -78 -71 -107 -128 -28 -58 -32 -77 -37 -178
l-5 -113 -32 22 c-17 13 -55 43 -83 67 l-52 45 6 -31 c4 -18 3 -34 -3 -38 -7
-4 -8 1 -4 12 3 10 3 15 -2 11 -25 -23 -61 152 -52 257 8 102 68 175 145 175
104 0 205 71 244 171 21 55 26 60 63 70 22 5 58 16 80 24 22 7 43 14 48 14 4
1 7 -27 7 -62z m-2102 37 c81 -20 84 -23 101 -71 39 -107 113 -162 246 -183
85 -13 119 -41 140 -114 29 -96 11 -257 -37 -331 -28 -42 -44 -46 -23 -5 14
28 20 60 11 60 -3 0 -22 -16 -43 -35 -21 -19 -56 -48 -78 -64 l-40 -29 0 102
c-1 127 -24 193 -96 269 l-50 52 5 -40 c3 -22 8 -65 12 -95 l7 -55 -44 55
c-133 164 -187 286 -202 458 -5 49 -5 49 91 26z m1812 -26 c0 -12 -9 -41 -21
-64 -34 -72 -129 -102 -232 -73 -32 9 -36 12 -27 29 8 15 17 18 44 13 70 -11
146 41 146 100 0 14 9 17 45 17 40 0 45 -3 45 -22z m-1512 -17 c19 -53 49 -71
118 -71 49 0 63 -4 68 -17 11 -29 -12 -38 -99 -38 -69 0 -88 4 -112 21 -31 23
-57 65 -67 107 -6 26 -5 27 38 27 40 0 45 -3 54 -29z m-783 -356 c-79 -21
-156 -53 -200 -81 -22 -14 -31 -23 -21 -19 11 3 53 11 93 17 59 9 76 9 86 -2
6 -7 7 -10 2 -7 -6 3 -36 -9 -68 -27 -47 -27 -54 -35 -44 -46 10 -12 9 -12 -5
-1 -13 9 -22 10 -38 1 -11 -6 -18 -15 -15 -20 3 -5 0 -12 -6 -16 -8 -4 -9 -3
-5 4 14 22 -10 12 -82 -35 -111 -75 -235 -180 -226 -194 3 -5 -1 -6 -9 -3 -17
6 -41 -21 -32 -35 3 -6 0 -8 -9 -5 -14 5 -43 -32 -38 -49 1 -5 -1 -6 -6 -3
-12 7 -54 -38 -50 -55 2 -7 -2 -13 -9 -14 -17 0 -55 -53 -47 -66 4 -7 3 -9 -4
-5 -16 9 -99 -143 -133 -245 -63 -187 -58 -376 16 -604 16 -49 -41 35 -82 122
-69 145 -95 261 -96 423 -1 162 12 221 83 365 95 191 253 353 452 463 152 83
372 150 498 150 l45 1 -50 -14z m3065 5 c238 -38 473 -152 645 -312 132 -123
227 -270 275 -423 28 -90 38 -273 20 -382 -20 -123 -96 -322 -151 -392 l-19
-24 6 34 c3 19 12 50 19 70 57 153 38 434 -41 609 -37 80 -153 252 -166 244
-6 -4 -8 -3 -5 3 9 14 -62 95 -75 87 -6 -4 -8 -2 -5 3 18 29 -257 242 -418
325 -144 74 -150 78 -125 78 24 0 106 -12 165 -25 48 -10 -123 77 -190 96 -71
21 -39 25 65 9z m-1124 -250 c-1 -19 5 -44 14 -54 17 -21 69 -77 58 -63 -3 5
-4 16 -1 25 5 11 3 13 -8 7 -8 -5 -11 -4 -6 0 14 16 36 14 30 -2 -5 -12 -1
-14 18 -9 23 6 23 6 4 -6 -26 -17 -30 -36 -11 -57 8 -9 31 -50 51 -92 41 -87
54 -164 34 -200 -7 -13 -13 -27 -14 -31 0 -3 -4 -10 -9 -15 -6 -5 -6 -2 -1 6
6 11 4 13 -11 6 -10 -4 -39 -13 -64 -20 l-45 -12 51 -7 c49 -7 150 5 200 24
33 13 32 -9 -3 -43 -57 -54 -219 -106 -336 -108 -36 0 -39 -2 -19 -9 12 -5 60
-15 106 -22 91 -13 190 -2 248 28 29 15 29 15 22 -13 -12 -55 -26 -98 -40
-120 -15 -24 -34 -31 -34 -13 0 6 7 10 15 10 24 0 17 20 -11 31 -15 5 -24 12
-21 15 3 3 15 0 27 -6 12 -6 24 -9 27 -7 2 3 -5 8 -17 12 -17 5 -19 10 -9 21
7 8 -6 5 -34 -8 -25 -12 -44 -25 -42 -28 2 -3 -9 -5 -23 -6 -15 0 -67 -6 -115
-12 -125 -16 -302 10 -356 52 -12 9 -13 8 -7 -4 4 -8 -4 -1 -18 15 -32 38 -33
75 -2 141 35 76 117 132 238 164 84 23 113 71 111 185 -1 63 -7 97 -32 164
-23 61 -29 87 -21 95 8 8 11 7 8 -4 -4 -18 33 -21 40 -2 2 8 -2 10 -14 5 -16
-6 -17 -5 -4 9 19 20 28 5 26 -42z m-1476 -201 c-271 -163 -467 -380 -611
-674 -112 -228 -155 -414 -147 -629 5 -106 30 -240 54 -290 22 -44 -43 53 -71
107 -163 307 -150 695 34 992 148 240 357 395 656 486 109 34 131 36 85 8z
m2168 -18 c139 -45 196 -73 312 -149 169 -112 310 -281 381 -458 60 -149 74
-226 74 -409 -1 -133 -5 -174 -23 -245 -28 -106 -121 -296 -164 -335 l-32 -30
26 32 c28 34 54 125 42 144 -4 7 -3 9 3 6 26 -16 31 280 8 416 -66 374 -344
787 -679 1008 -49 33 -84 59 -78 59 6 0 65 -18 130 -39z m-2104 -653 c-4 -7
-18 -26 -30 -43 -92 -125 -164 -375 -164 -569 0 -234 93 -509 256 -754 83
-124 256 -314 283 -310 9 2 15 -2 14 -8 -1 -7 28 -37 65 -67 118 -98 120 -100
47 -61 -291 155 -539 392 -657 629 -83 165 -118 312 -118 495 0 234 91 466
255 648 45 50 64 66 49 40z m2064 -161 c65 -100 119 -222 143 -323 32 -128 31
-325 0 -447 -80 -312 -280 -569 -616 -794 -68 -45 -195 -117 -195 -110 0 3 24
23 53 45 60 47 169 147 147 136 -8 -5 -4 6 10 22 14 17 31 29 37 27 14 -5 130
114 126 128 -2 5 1 8 5 6 11 -3 59 54 110 128 95 141 189 370 217 533 20 111
19 312 0 407 -25 118 -82 257 -145 350 -46 68 -43 72 11 15 29 -30 72 -86 97
-123z m-957 8 c165 -47 267 -155 277 -295 6 -82 -20 -149 -80 -206 -28 -27
-37 -32 -29 -16 30 58 3 181 -49 227 l-23 20 9 -25 c5 -14 9 -52 9 -86 -1 -48
-8 -75 -32 -125 -38 -76 -117 -160 -127 -134 -4 11 -2 14 6 9 8 -5 9 -1 4 12
-4 10 -4 15 0 11 11 -11 44 70 50 128 7 55 -11 155 -27 155 -5 0 -9 -5 -9 -10
0 -6 -12 -28 -26 -50 -15 -22 -23 -44 -18 -51 4 -7 3 -10 -3 -6 -14 9 -47 -42
-45 -68 1 -14 -1 -16 -7 -6 -6 9 -10 10 -16 2 -8 -15 -28 10 -93 117 l-50 81
-13 -47 c-21 -72 -15 -163 16 -225 15 -28 32 -55 38 -59 9 -6 9 -8 -1 -8 -20
0 -94 81 -124 136 -35 67 -52 152 -39 200 6 21 9 40 6 42 -2 2 -17 -15 -34
-38 -36 -49 -45 -91 -38 -163 l5 -52 -39 44 c-99 111 -84 281 33 386 49 45
139 90 208 104 30 6 64 13 75 15 30 7 134 -4 186 -19z m686 -670 c-4 -99 -10
-137 -36 -215 -54 -167 -162 -331 -314 -476 -73 -71 -234 -194 -252 -194 -7 0
17 30 128 154 34 38 67 76 74 86 6 9 25 31 42 49 29 31 35 44 32 64 -1 5 3 6
8 3 12 -8 44 42 35 56 -4 6 -3 8 3 5 13 -8 37 19 29 32 -4 5 0 13 8 18 8 4 32
37 53 73 89 148 155 333 169 471 7 73 8 73 17 34 5 -22 7 -94 4 -160z m-1596
-69 c53 -160 155 -343 295 -533 35 -47 59 -71 67 -67 7 4 9 4 5 -1 -8 -8 30
-63 75 -110 40 -41 81 -95 76 -100 -10 -10 -153 107 -254 209 -149 149 -248
304 -305 476 -24 72 -39 277 -25 346 7 37 8 35 22 -46 8 -47 28 -125 44 -174z"/>
</g>
</svg>
